<?xml version="1.0" standalone="no"?>
<!DOCTYPE svg PUBLIC "-//W3C//DTD SVG 20010904//EN"
 "http://www.w3.org/TR/2001/REC-SVG-20010904/DTD/svg10.dtd">
<svg version="1.0" xmlns="http://www.w3.org/2000/svg"
 width="700.000000pt" height="700.000000pt" viewBox="0 0 700.000000 700.000000"
 preserveAspectRatio="xMidYMid meet">
<metadata>
Created by potrace 1.14, written by Peter Selinger 2001-2017
</metadata>
<g transform="translate(0.000000,700.000000) scale(0.100000,-0.100000)"
fill="#000000" stroke="none">
<path d="M1107 5932 l-987 -987 0 -1400 0 -1400 993 -993 992 -992 1395 0
1395 0 993 993 992 992 0 1400 0 1400 -987 987 -988 988 -1405 0 -1405 0 -988
-988z m3640 866 l83 -83 0 -120 0 -120 -82 -82 -83 -83 -110 0 -110 0 -87 87
-88 88 0 110 0 110 87 87 88 88 110 0 110 0 82 -82z m-2124 -46 l87 -87 0
-110 0 -110 -82 -82 -83 -83 -120 0 -120 0 -82 82 -83 83 0 110 0 110 87 87
88 88 110 0 110 0 88 -88z m719 1 l78 -78 0 -120 0 -120 -77 -77 -78 -78 -120
0 -120 0 -82 82 -83 83 0 110 0 110 82 82 83 83 120 0 120 0 77 -77z m640 0
l78 -78 0 -115 0 -115 -82 -82 -83 -83 -115 0 -115 0 -82 82 -83 83 0 110 0
110 82 82 83 83 120 0 120 0 77 -77z m-2035 -595 l83 -83 0 -120 0 -120 -77
-77 -78 -78 -120 0 -120 0 -82 82 -83 83 0 115 0 115 82 82 83 83 115 0 115 0
82 -82z m2075 -15 l78 -78 0 -125 0 -125 -77 -77 -78 -78 -120 0 -120 0 -82
82 -83 83 0 115 0 115 82 82 83 83 120 0 120 0 77 -77z m1345 -5 l83 -83 0
-114 0 -113 -82 -84 -82 -84 -121 0 -121 0 -82 84 -82 84 0 113 0 114 82 82
83 83 120 0 120 0 82 -82z m-3420 -630 l83 -83 0 -120 0 -120 -77 -77 -78 -78
-120 0 -120 0 -82 82 -83 83 0 115 0 115 82 82 83 83 115 0 115 0 82 -82z
m3466 -6 l87 -87 0 -110 0 -110 -82 -82 -83 -83 -120 0 -120 0 -77 77 -78 78
0 120 0 120 82 82 83 83 110 0 110 0 88 -88z m-2816 -14 l83 -83 0 -115 0
-115 -82 -82 -83 -83 -115 0 -115 0 -82 82 -83 83 0 115 0 115 82 82 83 83
115 0 115 0 82 -82z m2155 -25 l78 -78 0 -120 0 -120 -77 -77 -78 -78 -120 0
-120 0 -82 82 -83 83 0 110 0 110 82 82 83 83 120 0 120 0 77 -77z m-1410 -60
l78 -78 0 -120 0 -120 -82 -82 -83 -83 -114 0 -115 0 -83 83 -83 83 0 114 0
115 82 82 83 83 120 0 120 0 77 -77z m-2625 -525 l83 -83 0 -115 0 -115 -82
-82 -83 -83 -120 0 -120 0 -77 77 -78 78 0 120 0 120 82 82 83 83 115 0 115 0
82 -82z m625 -5 l78 -78 0 -115 0 -115 -82 -82 -83 -83 -115 0 -115 0 -82 82
-83 83 0 115 0 115 77 77 78 78 125 0 125 0 77 -77z m655 -15 l83 -83 0 -120
0 -120 -82 -82 -83 -83 -110 0 -110 0 -87 87 -88 88 0 114 0 115 83 83 83 83
114 0 115 0 82 -82z m3420 -50 l83 -83 0 -114 0 -115 -83 -83 -83 -83 -114 0
-115 0 -82 82 -83 83 0 120 0 120 77 77 78 78 120 0 120 0 82 -82z m635 5 l78
-78 0 -120 0 -120 -82 -82 -83 -83 -110 0 -110 0 -82 82 -83 83 0 120 0 120
77 77 78 78 120 0 120 0 77 -77z m630 0 l78 -78 0 -120 0 -120 -82 -82 -83
-83 -115 0 -115 0 -82 82 -83 83 0 115 0 115 82 82 83 83 120 0 120 0 77 -77z
m-2660 -120 l78 -78 0 -120 0 -120 -82 -82 -83 -83 -110 0 -110 0 -87 87 -88
88 0 110 0 110 82 82 83 83 120 0 120 0 77 -77z m-3305 -565 l83 -83 0 -115 0
-115 -82 -82 -83 -83 -115 0 -115 0 -82 82 -83 83 0 115 0 115 82 82 83 83
115 0 115 0 82 -82z m1230 -50 l83 -83 0 -120 0 -120 -77 -77 -78 -78 -120 0
-120 0 -82 82 -83 83 0 115 0 115 82 82 83 83 115 0 115 0 82 -82z m650 -20
l83 -83 0 -115 0 -115 -82 -82 -83 -83 -115 0 -115 0 -82 82 -83 83 0 115 0
115 82 82 83 83 115 0 115 0 82 -82z m4115 5 l78 -78 0 -125 0 -125 -77 -77
-78 -78 -120 0 -120 0 -82 82 -83 83 0 115 0 115 82 82 83 83 120 0 120 0 77
-77z m-3405 -85 l83 -83 0 -115 0 -115 -82 -82 -83 -83 -115 0 -115 0 -82 82
-83 83 0 115 0 115 82 82 83 83 115 0 115 0 82 -82z m2110 0 l83 -83 0 -114 0
-113 -82 -84 -82 -84 -115 0 -116 0 -82 82 -83 83 0 120 0 120 77 77 78 78
120 0 120 0 82 -82z m-665 -5 l78 -78 0 -120 0 -120 -82 -82 -83 -83 -115 0
-115 0 -82 82 -83 83 0 115 0 115 82 82 83 83 120 0 120 0 77 -77z m-4035
-595 l83 -83 0 -115 0 -115 -82 -82 -83 -83 -115 0 -115 0 -82 82 -83 83 0
115 0 115 82 82 83 83 115 0 115 0 82 -82z m640 -10 l83 -83 0 -115 0 -115
-82 -82 -83 -83 -115 0 -115 0 -77 77 -78 78 0 125 0 125 77 77 78 78 115 0
115 0 82 -82z m1240 -60 l83 -83 0 -115 0 -115 -82 -82 -83 -83 -115 0 -115 0
-82 82 -83 83 0 115 0 115 82 82 83 83 115 0 115 0 82 -82z m2820 0 l83 -83 0
-115 0 -115 -82 -82 -83 -83 -120 0 -120 0 -77 77 -78 78 0 125 0 125 77 77
78 78 120 0 120 0 82 -82z m1295 5 l78 -78 0 -125 0 -125 -77 -77 -78 -78
-120 0 -120 0 -82 82 -83 83 0 115 0 115 82 82 83 83 120 0 120 0 77 -77z
m-4765 -15 l83 -83 0 -115 0 -115 -82 -82 -83 -83 -115 0 -115 0 -82 82 -83
83 0 115 0 115 82 82 83 83 115 0 115 0 82 -82z m2125 5 l78 -78 0 -120 0
-120 -82 -82 -83 -83 -115 0 -115 0 -82 82 -83 83 0 115 0 115 82 82 83 83
120 0 120 0 77 -77z m675 -5 l83 -83 0 -115 0 -115 -82 -82 -83 -83 -116 0
-115 0 -82 84 -82 84 0 112 0 112 82 84 82 84 115 0 116 0 82 -82z m1280 0
l83 -83 0 -115 0 -115 -82 -82 -83 -83 -115 0 -115 0 -82 82 -83 83 0 115 0
115 82 82 83 83 115 0 115 0 82 -82z m-5310 -670 l83 -83 0 -115 0 -115 -82
-82 -83 -83 -115 0 -115 0 -82 82 -83 83 0 115 0 115 82 82 83 83 115 0 115 0
82 -82z m1230 -10 l83 -83 0 -115 0 -115 -82 -82 -83 -83 -115 0 -115 0 -82
82 -83 83 0 115 0 115 82 82 83 83 115 0 115 0 82 -82z m1340 0 l83 -83 0
-115 0 -115 -82 -82 -83 -83 -115 0 -115 0 -82 82 -83 83 0 120 0 120 77 77
78 78 120 0 120 0 82 -82z m2200 -60 l83 -83 0 -115 0 -115 -82 -82 -83 -83
-115 0 -115 0 -82 82 -83 83 0 115 0 115 82 82 83 83 115 0 115 0 82 -82z
m1266 -6 l87 -87 0 -109 0 -108 -82 -84 -82 -84 -120 0 -121 0 -82 82 -83 83
0 110 0 110 87 87 88 88 110 0 110 0 88 -88z m-4131 -579 l78 -78 0 -120 0
-120 -77 -77 -78 -78 -120 0 -120 0 -77 77 -78 78 0 120 0 120 77 77 78 78
120 0 120 0 77 -77z m1450 -10 l78 -78 0 -120 0 -120 -82 -82 -83 -83 -115 0
-115 0 -82 82 -83 83 0 115 0 115 82 82 83 83 120 0 120 0 77 -77z m-2170 -60
l78 -78 0 -120 0 -120 -82 -82 -83 -83 -115 0 -115 0 -82 82 -83 83 0 115 0
115 82 82 83 83 120 0 120 0 77 -77z m2845 -5 l83 -83 0 -115 0 -115 -82 -82
-83 -83 -116 0 -115 0 -82 84 -82 84 0 112 0 112 82 84 82 84 115 0 116 0 82
-82z m-3480 -10 l83 -83 0 -115 0 -115 -82 -82 -83 -83 -115 0 -115 0 -82 82
-83 83 0 115 0 115 82 82 83 83 115 0 115 0 82 -82z m4220 0 l83 -83 0 -115 0
-115 -82 -82 -83 -83 -115 0 -115 0 -82 82 -83 83 0 115 0 115 82 82 83 83
115 0 115 0 82 -82z m620 0 l83 -83 0 -115 0 -115 -82 -82 -83 -83 -110 0
-110 0 -87 87 -88 86 0 111 0 111 82 82 83 83 115 0 115 0 82 -82z m-2820
-560 l83 -83 0 -115 0 -115 -82 -82 -83 -83 -120 0 -120 0 -77 77 -78 78 0
120 0 120 82 82 83 83 115 0 115 0 82 -82z m-1335 -35 l78 -78 0 -120 0 -120
-82 -82 -83 -83 -115 0 -115 0 -82 82 -83 83 0 115 0 115 82 82 83 83 120 0
120 0 77 -77z m3540 0 l78 -78 0 -120 0 -120 -82 -82 -83 -83 -115 0 -115 0
-82 82 -83 83 0 115 0 115 82 82 83 83 120 0 120 0 77 -77z m-2895 -565 l83
-83 0 -115 0 -115 -82 -82 -83 -83 -115 0 -115 0 -82 82 -83 83 0 115 0 115
82 82 83 83 115 0 115 0 82 -82z m1475 -35 l78 -78 0 -120 0 -120 -77 -77 -78
-78 -120 0 -120 0 -82 82 -83 83 0 110 0 110 82 82 83 83 120 0 120 0 77 -77z
m-765 -15 l83 -83 0 -115 0 -115 -82 -82 -83 -83 -114 0 -113 0 -84 82 -84 82
0 115 0 116 82 82 83 83 115 0 115 0 82 -82z m1445 5 l78 -78 0 -120 0 -120
-82 -82 -83 -83 -115 0 -115 0 -82 82 -83 83 0 115 0 115 82 82 83 83 120 0
120 0 77 -77z"/>
</g>
</svg>
